<mxfile host="Electron" modified="2023-12-13T18:18:02.591Z" agent="Mozilla/5.0 (Windows NT 10.0; Win64; x64) AppleWebKit/537.36 (KHTML, like Gecko) draw.io/22.1.2 Chrome/114.0.5735.289 Electron/25.9.4 Safari/537.36" etag="oO-kPnbFaOLBgHRqyuyN" version="22.1.2" type="device" pages="2">
  <diagram name="Экраны" id="wfrLYb_MogWIqpMMaaDi">
    <mxGraphModel dx="1180" dy="862" grid="1" gridSize="10" guides="1" tooltips="1" connect="1" arrows="1" fold="1" page="1" pageScale="1" pageWidth="850" pageHeight="1100" math="0" shadow="0">
      <root>
        <mxCell id="0" />
        <mxCell id="1" parent="0" />
        <mxCell id="lCqAPfUZkY0VaVfdZKDT-1" value="" style="rounded=1;whiteSpace=wrap;html=1;" parent="1" vertex="1">
          <mxGeometry x="40" y="40" width="280" height="520" as="geometry" />
        </mxCell>
        <mxCell id="lCqAPfUZkY0VaVfdZKDT-2" value="Искать" style="rounded=1;whiteSpace=wrap;html=1;" parent="1" vertex="1">
          <mxGeometry x="120" y="150" width="120" height="60" as="geometry" />
        </mxCell>
        <mxCell id="lCqAPfUZkY0VaVfdZKDT-5" value="Добавить" style="rounded=1;whiteSpace=wrap;html=1;" parent="1" vertex="1">
          <mxGeometry x="120" y="260" width="120" height="60" as="geometry" />
        </mxCell>
        <mxCell id="lCqAPfUZkY0VaVfdZKDT-6" value="Учить" style="rounded=1;whiteSpace=wrap;html=1;" parent="1" vertex="1">
          <mxGeometry x="120" y="370" width="120" height="60" as="geometry" />
        </mxCell>
        <mxCell id="lCqAPfUZkY0VaVfdZKDT-8" value="" style="rounded=1;whiteSpace=wrap;html=1;" parent="1" vertex="1">
          <mxGeometry x="350" y="40" width="280" height="520" as="geometry" />
        </mxCell>
        <mxCell id="lCqAPfUZkY0VaVfdZKDT-9" value="&lt;font style=&quot;font-size: 7px;&quot;&gt;Настройки&lt;/font&gt;" style="ellipse;whiteSpace=wrap;html=1;aspect=fixed;" parent="1" vertex="1">
          <mxGeometry x="260" y="50" width="40" height="40" as="geometry" />
        </mxCell>
        <mxCell id="lCqAPfUZkY0VaVfdZKDT-10" value="Сербское слово&lt;br&gt;(или несколько, если переводим&lt;br&gt;с русского и есть несколько вариантов)" style="rounded=1;whiteSpace=wrap;html=1;" parent="1" vertex="1">
          <mxGeometry x="380" y="110" width="220" height="150" as="geometry" />
        </mxCell>
        <mxCell id="lCqAPfUZkY0VaVfdZKDT-11" value="Русское слово&lt;br&gt;(или несколько, если переводим&lt;br style=&quot;border-color: var(--border-color);&quot;&gt;с сербского и есть несколько вариантов)" style="rounded=1;whiteSpace=wrap;html=1;" parent="1" vertex="1">
          <mxGeometry x="380" y="280" width="220" height="150" as="geometry" />
        </mxCell>
        <mxCell id="lCqAPfUZkY0VaVfdZKDT-12" value="&lt;font style=&quot;font-size: 7px;&quot;&gt;Настройки&lt;/font&gt;" style="ellipse;whiteSpace=wrap;html=1;aspect=fixed;" parent="1" vertex="1">
          <mxGeometry x="570" y="50" width="40" height="40" as="geometry" />
        </mxCell>
        <mxCell id="lCqAPfUZkY0VaVfdZKDT-14" value="Главный экран" style="text;html=1;strokeColor=none;fillColor=none;align=center;verticalAlign=middle;whiteSpace=wrap;rounded=0;" parent="1" vertex="1">
          <mxGeometry x="120" width="120" height="30" as="geometry" />
        </mxCell>
        <mxCell id="lCqAPfUZkY0VaVfdZKDT-15" value="Поиск" style="text;html=1;strokeColor=none;fillColor=none;align=center;verticalAlign=middle;whiteSpace=wrap;rounded=0;" parent="1" vertex="1">
          <mxGeometry x="460" width="60" height="30" as="geometry" />
        </mxCell>
        <mxCell id="lCqAPfUZkY0VaVfdZKDT-16" value="Добавить в словарь" style="rounded=1;whiteSpace=wrap;html=1;" parent="1" vertex="1">
          <mxGeometry x="430" y="450" width="120" height="40" as="geometry" />
        </mxCell>
        <mxCell id="lCqAPfUZkY0VaVfdZKDT-17" value="Добавить в словарь" style="rounded=1;whiteSpace=wrap;html=1;" parent="1" vertex="1">
          <mxGeometry x="430" y="450" width="120" height="40" as="geometry" />
        </mxCell>
        <mxCell id="lCqAPfUZkY0VaVfdZKDT-18" value="Добавить с примечанием" style="rounded=1;whiteSpace=wrap;html=1;fillColor=#f5f5f5;fontColor=#333333;strokeColor=#666666;" parent="1" vertex="1">
          <mxGeometry x="430" y="500" width="120" height="40" as="geometry" />
        </mxCell>
        <mxCell id="lCqAPfUZkY0VaVfdZKDT-19" value="" style="rounded=1;whiteSpace=wrap;html=1;" parent="1" vertex="1">
          <mxGeometry x="670" y="40" width="280" height="520" as="geometry" />
        </mxCell>
        <mxCell id="lCqAPfUZkY0VaVfdZKDT-20" value="Сербское слово" style="rounded=1;whiteSpace=wrap;html=1;" parent="1" vertex="1">
          <mxGeometry x="700" y="110" width="220" height="150" as="geometry" />
        </mxCell>
        <mxCell id="lCqAPfUZkY0VaVfdZKDT-21" value="Русское слово" style="rounded=1;whiteSpace=wrap;html=1;" parent="1" vertex="1">
          <mxGeometry x="700" y="280" width="220" height="150" as="geometry" />
        </mxCell>
        <mxCell id="lCqAPfUZkY0VaVfdZKDT-22" value="&lt;font style=&quot;font-size: 7px;&quot;&gt;Настройки&lt;/font&gt;" style="ellipse;whiteSpace=wrap;html=1;aspect=fixed;" parent="1" vertex="1">
          <mxGeometry x="890" y="50" width="40" height="40" as="geometry" />
        </mxCell>
        <mxCell id="lCqAPfUZkY0VaVfdZKDT-23" value="Добавить в словарь" style="rounded=1;whiteSpace=wrap;html=1;" parent="1" vertex="1">
          <mxGeometry x="750" y="450" width="120" height="40" as="geometry" />
        </mxCell>
        <mxCell id="lCqAPfUZkY0VaVfdZKDT-24" value="Добавить с примечанием" style="rounded=1;whiteSpace=wrap;html=1;fillColor=#f5f5f5;fontColor=#333333;strokeColor=#666666;" parent="1" vertex="1">
          <mxGeometry x="750" y="500" width="120" height="40" as="geometry" />
        </mxCell>
        <mxCell id="lCqAPfUZkY0VaVfdZKDT-25" value="Добавление своего перевода" style="text;html=1;strokeColor=none;fillColor=none;align=center;verticalAlign=middle;whiteSpace=wrap;rounded=0;" parent="1" vertex="1">
          <mxGeometry x="715" width="190" height="30" as="geometry" />
        </mxCell>
        <mxCell id="lCqAPfUZkY0VaVfdZKDT-27" value="" style="rounded=1;whiteSpace=wrap;html=1;" parent="1" vertex="1">
          <mxGeometry x="40" y="660" width="280" height="520" as="geometry" />
        </mxCell>
        <mxCell id="lCqAPfUZkY0VaVfdZKDT-28" value="Знакомство" style="text;html=1;strokeColor=none;fillColor=none;align=center;verticalAlign=middle;whiteSpace=wrap;rounded=0;" parent="1" vertex="1">
          <mxGeometry x="135" y="620" width="90" height="30" as="geometry" />
        </mxCell>
        <mxCell id="lCqAPfUZkY0VaVfdZKDT-29" value="Слово на сербском латиницей" style="text;html=1;strokeColor=none;fillColor=none;align=center;verticalAlign=middle;whiteSpace=wrap;rounded=0;" parent="1" vertex="1">
          <mxGeometry x="70" y="720" width="210" height="30" as="geometry" />
        </mxCell>
        <mxCell id="lCqAPfUZkY0VaVfdZKDT-30" value="Слово на сербском кириллицей" style="text;html=1;strokeColor=none;fillColor=none;align=center;verticalAlign=middle;whiteSpace=wrap;rounded=0;" parent="1" vertex="1">
          <mxGeometry x="70" y="760" width="220" height="30" as="geometry" />
        </mxCell>
        <mxCell id="lCqAPfUZkY0VaVfdZKDT-31" value="Перевод на русский" style="text;html=1;strokeColor=none;fillColor=none;align=center;verticalAlign=middle;whiteSpace=wrap;rounded=0;" parent="1" vertex="1">
          <mxGeometry x="70" y="840" width="150" height="30" as="geometry" />
        </mxCell>
        <mxCell id="lCqAPfUZkY0VaVfdZKDT-32" value="Другие варианты перевода, если есть." style="text;html=1;strokeColor=none;fillColor=none;align=center;verticalAlign=middle;whiteSpace=wrap;rounded=0;" parent="1" vertex="1">
          <mxGeometry x="80" y="880" width="180" height="30" as="geometry" />
        </mxCell>
        <mxCell id="lCqAPfUZkY0VaVfdZKDT-33" value="Варианты использования (примеры предложений), если есть." style="text;html=1;strokeColor=none;fillColor=none;align=center;verticalAlign=middle;whiteSpace=wrap;rounded=0;" parent="1" vertex="1">
          <mxGeometry x="70" y="940" width="190" height="50" as="geometry" />
        </mxCell>
        <mxCell id="lCqAPfUZkY0VaVfdZKDT-34" value="Далее" style="rounded=1;whiteSpace=wrap;html=1;" parent="1" vertex="1">
          <mxGeometry x="125" y="1130" width="110" height="30" as="geometry" />
        </mxCell>
        <mxCell id="lCqAPfUZkY0VaVfdZKDT-35" value="Добавить свой вариант" style="rounded=1;whiteSpace=wrap;html=1;fillColor=#f5f5f5;fontColor=#333333;strokeColor=#666666;" parent="1" vertex="1">
          <mxGeometry x="120" y="1060" width="120" height="40" as="geometry" />
        </mxCell>
        <mxCell id="lCqAPfUZkY0VaVfdZKDT-36" value="" style="rounded=1;whiteSpace=wrap;html=1;" parent="1" vertex="1">
          <mxGeometry x="350" y="660" width="280" height="520" as="geometry" />
        </mxCell>
        <mxCell id="lCqAPfUZkY0VaVfdZKDT-37" value="Выбор из вариантов" style="text;html=1;strokeColor=none;fillColor=none;align=center;verticalAlign=middle;whiteSpace=wrap;rounded=0;" parent="1" vertex="1">
          <mxGeometry x="420" y="620" width="140" height="30" as="geometry" />
        </mxCell>
        <mxCell id="lCqAPfUZkY0VaVfdZKDT-38" value="Слово на сербском латиницей" style="text;html=1;strokeColor=none;fillColor=none;align=center;verticalAlign=middle;whiteSpace=wrap;rounded=0;" parent="1" vertex="1">
          <mxGeometry x="380" y="720" width="210" height="30" as="geometry" />
        </mxCell>
        <mxCell id="lCqAPfUZkY0VaVfdZKDT-39" value="Слово на сербском кириллицей" style="text;html=1;strokeColor=none;fillColor=none;align=center;verticalAlign=middle;whiteSpace=wrap;rounded=0;" parent="1" vertex="1">
          <mxGeometry x="380" y="760" width="220" height="30" as="geometry" />
        </mxCell>
        <mxCell id="lCqAPfUZkY0VaVfdZKDT-40" value="Вариант 1" style="rounded=1;whiteSpace=wrap;html=1;" parent="1" vertex="1">
          <mxGeometry x="430" y="840" width="120" height="60" as="geometry" />
        </mxCell>
        <mxCell id="lCqAPfUZkY0VaVfdZKDT-41" value="Вариант 2" style="rounded=1;whiteSpace=wrap;html=1;" parent="1" vertex="1">
          <mxGeometry x="430" y="920" width="120" height="60" as="geometry" />
        </mxCell>
        <mxCell id="lCqAPfUZkY0VaVfdZKDT-42" value="Вариант 3" style="rounded=1;whiteSpace=wrap;html=1;" parent="1" vertex="1">
          <mxGeometry x="430" y="1000" width="120" height="60" as="geometry" />
        </mxCell>
        <mxCell id="lCqAPfUZkY0VaVfdZKDT-43" value="Вариант 4" style="rounded=1;whiteSpace=wrap;html=1;" parent="1" vertex="1">
          <mxGeometry x="430" y="1080" width="120" height="60" as="geometry" />
        </mxCell>
        <mxCell id="lCqAPfUZkY0VaVfdZKDT-44" value="" style="rounded=1;whiteSpace=wrap;html=1;" parent="1" vertex="1">
          <mxGeometry x="690" y="660" width="280" height="520" as="geometry" />
        </mxCell>
        <mxCell id="lCqAPfUZkY0VaVfdZKDT-45" value="Написание" style="text;html=1;strokeColor=none;fillColor=none;align=center;verticalAlign=middle;whiteSpace=wrap;rounded=0;" parent="1" vertex="1">
          <mxGeometry x="800" y="620" width="60" height="30" as="geometry" />
        </mxCell>
        <mxCell id="lCqAPfUZkY0VaVfdZKDT-46" value="Слово на русском" style="text;html=1;strokeColor=none;fillColor=none;align=center;verticalAlign=middle;whiteSpace=wrap;rounded=0;" parent="1" vertex="1">
          <mxGeometry x="770" y="700" width="120" height="30" as="geometry" />
        </mxCell>
        <mxCell id="lCqAPfUZkY0VaVfdZKDT-47" value="Поле для ввода перевода на латинице" style="rounded=1;whiteSpace=wrap;html=1;" parent="1" vertex="1">
          <mxGeometry x="700" y="780" width="260" height="60" as="geometry" />
        </mxCell>
        <mxCell id="lCqAPfUZkY0VaVfdZKDT-48" value="Поле для ввода перевода на кириллице" style="rounded=1;whiteSpace=wrap;html=1;" parent="1" vertex="1">
          <mxGeometry x="700" y="860" width="260" height="60" as="geometry" />
        </mxCell>
        <mxCell id="lCqAPfUZkY0VaVfdZKDT-49" value="Далее" style="rounded=1;whiteSpace=wrap;html=1;" parent="1" vertex="1">
          <mxGeometry x="795" y="1130" width="110" height="30" as="geometry" />
        </mxCell>
        <mxCell id="lCqAPfUZkY0VaVfdZKDT-50" value="" style="rounded=1;whiteSpace=wrap;html=1;fillColor=#f5f5f5;fontColor=#333333;strokeColor=#666666;" parent="1" vertex="1">
          <mxGeometry x="1020" y="660" width="280" height="520" as="geometry" />
        </mxCell>
        <mxCell id="lCqAPfUZkY0VaVfdZKDT-51" value="Прослушивание" style="text;html=1;strokeColor=none;fillColor=none;align=center;verticalAlign=middle;whiteSpace=wrap;rounded=0;" parent="1" vertex="1">
          <mxGeometry x="1100" y="620" width="120" height="30" as="geometry" />
        </mxCell>
      </root>
    </mxGraphModel>
  </diagram>
  <diagram id="42cMeHcMFaeiQXRsLYZA" name="DB">
    <mxGraphModel dx="1180" dy="862" grid="1" gridSize="10" guides="1" tooltips="1" connect="1" arrows="1" fold="1" page="1" pageScale="1" pageWidth="850" pageHeight="1100" math="0" shadow="0">
      <root>
        <mxCell id="0" />
        <mxCell id="1" parent="0" />
        <mxCell id="Gi7xgYzj731c7OfGKdVK-2" value="rus" style="rounded=1;whiteSpace=wrap;html=1;" vertex="1" parent="1">
          <mxGeometry x="50" y="120" width="120" height="60" as="geometry" />
        </mxCell>
        <mxCell id="Gi7xgYzj731c7OfGKdVK-3" value="srb_lat" style="rounded=1;whiteSpace=wrap;html=1;" vertex="1" parent="1">
          <mxGeometry x="310" y="120" width="120" height="60" as="geometry" />
        </mxCell>
        <mxCell id="Gi7xgYzj731c7OfGKdVK-5" value="srb_cyr" style="rounded=1;whiteSpace=wrap;html=1;" vertex="1" parent="1">
          <mxGeometry x="560" y="120" width="120" height="60" as="geometry" />
        </mxCell>
        <mxCell id="Gi7xgYzj731c7OfGKdVK-7" value="" style="endArrow=none;html=1;edgeStyle=orthogonalEdgeStyle;rounded=0;" edge="1" parent="1" source="Gi7xgYzj731c7OfGKdVK-2" target="Gi7xgYzj731c7OfGKdVK-3">
          <mxGeometry relative="1" as="geometry">
            <mxPoint x="230" y="390" as="sourcePoint" />
            <mxPoint x="390" y="390" as="targetPoint" />
          </mxGeometry>
        </mxCell>
        <mxCell id="Gi7xgYzj731c7OfGKdVK-8" value="n" style="edgeLabel;resizable=0;html=1;align=left;verticalAlign=bottom;" connectable="0" vertex="1" parent="Gi7xgYzj731c7OfGKdVK-7">
          <mxGeometry x="-1" relative="1" as="geometry" />
        </mxCell>
        <mxCell id="Gi7xgYzj731c7OfGKdVK-9" value="n" style="edgeLabel;resizable=0;html=1;align=right;verticalAlign=bottom;" connectable="0" vertex="1" parent="Gi7xgYzj731c7OfGKdVK-7">
          <mxGeometry x="1" relative="1" as="geometry" />
        </mxCell>
        <mxCell id="Gi7xgYzj731c7OfGKdVK-10" value="" style="endArrow=none;html=1;edgeStyle=orthogonalEdgeStyle;rounded=0;" edge="1" parent="1" source="Gi7xgYzj731c7OfGKdVK-3" target="Gi7xgYzj731c7OfGKdVK-5">
          <mxGeometry relative="1" as="geometry">
            <mxPoint x="510" y="270" as="sourcePoint" />
            <mxPoint x="670" y="270" as="targetPoint" />
          </mxGeometry>
        </mxCell>
        <mxCell id="Gi7xgYzj731c7OfGKdVK-11" value="1" style="edgeLabel;resizable=0;html=1;align=left;verticalAlign=bottom;" connectable="0" vertex="1" parent="Gi7xgYzj731c7OfGKdVK-10">
          <mxGeometry x="-1" relative="1" as="geometry" />
        </mxCell>
        <mxCell id="Gi7xgYzj731c7OfGKdVK-12" value="1" style="edgeLabel;resizable=0;html=1;align=right;verticalAlign=bottom;" connectable="0" vertex="1" parent="Gi7xgYzj731c7OfGKdVK-10">
          <mxGeometry x="1" relative="1" as="geometry" />
        </mxCell>
      </root>
    </mxGraphModel>
  </diagram>
</mxfile>
